<?xml version="1.0" standalone="no"?>
<!DOCTYPE svg PUBLIC "-//W3C//DTD SVG 20010904//EN"
 "http://www.w3.org/TR/2001/REC-SVG-20010904/DTD/svg10.dtd">
<svg version="1.0" xmlns="http://www.w3.org/2000/svg"
 width="260.000000pt" height="485.000000pt" viewBox="0 0 260.000000 485.000000"
 preserveAspectRatio="xMidYMid meet">
<metadata>
Created by 2EasyLifeHacks.com 2001-2019
</metadata>
<g transform="translate(0.000000,485.000000) scale(0.100000,-0.100000)"
fill="#000000" stroke="none">
<path d="M661 4821 c-29 -10 -65 -27 -80 -38 -76 -57 -117 -176 -107 -308 9
-121 30 -209 236 -981 177 -664 209 -804 181 -804 -5 0 -14 7 -22 16 -24 29
-108 64 -168 70 -83 9 -182 -12 -239 -50 -36 -24 -55 -47 -82 -101 -33 -66
-35 -74 -35 -175 0 -58 3 -118 7 -135 l7 -30 -66 3 c-100 6 -149 -5 -189 -40
-49 -43 -73 -95 -86 -186 -9 -66 -8 -91 7 -158 9 -43 21 -158 26 -254 15 -305
41 -474 105 -687 54 -179 72 -212 194 -348 l110 -123 0 -166 0 -167 47 -21
c235 -103 542 -153 789 -129 151 15 314 51 468 105 l121 42 5 219 5 220 83
140 c136 230 266 497 339 699 21 59 24 79 18 134 -8 75 -54 268 -84 356 -17
49 -21 84 -21 201 0 78 -5 234 -11 346 l-10 204 169 645 c93 355 180 697 192
760 54 265 18 390 -133 471 -56 30 -70 34 -147 34 -75 0 -91 -3 -132 -27 -95
-56 -183 -186 -267 -395 -26 -65 -117 -331 -202 -591 -100 -306 -156 -466
-161 -455 -4 10 -77 308 -164 663 -104 430 -169 678 -195 745 -61 156 -130
247 -224 291 -65 31 -202 33 -284 5z m212 -211 c44 -38 88 -123 121 -230 15
-47 105 -407 201 -800 97 -393 181 -720 188 -727 15 -15 264 -40 276 -27 5 5
102 284 216 619 253 743 294 850 337 892 41 38 78 47 122 29 50 -21 58 -55 41
-171 -8 -53 -93 -408 -190 -790 l-175 -694 0 -163 0 -162 -30 48 c-43 68 -164
227 -192 253 -21 20 -64 28 -348 70 l-324 48 -158 595 c-206 780 -278 1063
-278 1103 0 48 30 100 70 119 51 26 84 22 123 -12z m532 -2061 l240 -31 27
-31 c54 -62 178 -256 237 -368 74 -143 140 -309 182 -462 l33 -118 -60 -147
c-100 -248 -251 -540 -343 -661 -26 -34 -26 -38 -29 -226 l-3 -192 -87 -26
c-285 -85 -563 -84 -854 4 l-68 21 -1 116 c0 65 -3 125 -7 134 -4 9 -66 84
-139 167 -146 166 -149 171 -194 384 -10 50 -22 102 -24 115 -5 20 -1 18 26
-13 17 -19 53 -48 78 -63 41 -24 56 -27 136 -27 80 0 95 3 137 28 58 34 96 82
119 150 11 30 24 51 31 50 7 -1 40 -9 73 -18 48 -12 75 -13 133 -5 144 20 222
90 251 228 26 123 7 241 -68 430 -23 56 -41 104 -41 106 0 2 33 -9 73 -25 39
-15 91 -33 115 -39 l42 -11 0 -91 c0 -96 25 -290 41 -320 8 -15 23 -18 98 -18
63 0 92 4 100 14 9 10 8 36 -5 107 -9 54 -18 183 -21 302 -6 201 -6 207 -27
211 -11 2 -56 9 -98 15 -141 19 -258 75 -314 148 -34 45 -73 139 -74 176 0 23
3 27 23 22 12 -2 130 -19 262 -36z m-672 -23 c51 -51 79 -106 178 -348 189
-461 204 -508 179 -568 -18 -44 -89 -77 -129 -60 -58 24 -143 136 -202 268
-76 167 -173 414 -190 481 -42 163 -7 261 93 261 29 0 45 -7 71 -34z m-333
-484 c47 -48 109 -174 203 -407 52 -130 61 -218 26 -258 -13 -15 -38 -30 -55
-33 -27 -5 -38 0 -71 29 -51 47 -74 90 -178 341 -102 245 -115 307 -72 350 19
19 37 26 63 26 32 0 45 -8 84 -48z"/>
</g>
</svg>
