<?xml version="1.0" standalone="no"?>
<!DOCTYPE svg PUBLIC "-//W3C//DTD SVG 20010904//EN"
 "http://www.w3.org/TR/2001/REC-SVG-20010904/DTD/svg10.dtd">
<svg version="1.0" xmlns="http://www.w3.org/2000/svg"
 width="542.000000pt" height="542.000000pt" viewBox="0 0 542.000000 542.000000"
 preserveAspectRatio="xMidYMid meet">
<metadata>
Created by potrace 1.16, written by Peter Selinger 2001-2019
</metadata>
<g transform="translate(0.000000,542.000000) scale(0.100000,-0.100000)"
fill="#DF4528" stroke="none">
<path d="M2507 4345 c-225 -38 -399 -127 -548 -281 -90 -94 -126 -145 -179
-256 -75 -155 -110 -318 -110 -514 l0 -124 279 0 278 0 6 123 c13 269 84 424
227 496 87 43 155 54 295 49 193 -8 283 -58 352 -195 67 -135 66 -261 -3 -403
-33 -66 -60 -97 -244 -280 -114 -113 -235 -243 -269 -289 -144 -195 -201 -397
-201 -708 l0 -123 278 0 279 0 6 148 c7 167 24 250 68 332 37 70 161 214 259
300 103 92 292 300 350 387 28 42 61 109 77 156 25 77 27 93 28 262 0 205 -11
263 -76 403 -134 290 -394 472 -744 522 -96 13 -313 11 -408 -5z"/>
<path d="M2380 1370 l0 -310 305 0 305 0 0 310 0 310 -305 0 -305 0 0 -310z"/>
</g>
</svg>
